<svg width="256" height="188" viewBox="0 0 532 390" xmlns="http://www.w3.org/2000/svg">
<g transform="translate(0,390) scale(0.025,-0.025)">
<path d="M6555 14980 c-179 -8 -193 -9 -425 -41 -1309 -181 -2314 -732 -2990
-1639 -82 -109 -106 -145 -195 -285 -188 -295 -380 -700 -469 -986 -33 -109
-140 -482 -156 -544 -4 -16 -23 -84 -43 -150 -19 -66 -56 -199 -82 -295 -25
-96 -66 -242 -90 -325 -24 -82 -71 -244 -104 -360 -32 -115 -84 -295 -115
-400 -30 -104 -93 -329 -140 -500 -47 -170 -141 -508 -211 -750 -120 -422
-163 -573 -330 -1150 -86 -298 -104 -363 -141 -495 -14 -52 -41 -147 -61 -210
-54 -179 -69 -229 -93 -320 -12 -47 -38 -139 -57 -205 -37 -128 -52 -179 -82
-290 -11 -38 -29 -103 -40 -142 -12 -40 -30 -103 -40 -140 -10 -38 -31 -108
-46 -158 -15 -49 -38 -130 -52 -180 -14 -49 -33 -117 -43 -150 -10 -33 -28
-94 -40 -135 -11 -41 -29 -102 -39 -135 -55 -179 -55 -177 32 -242 35 -26 107
-83 158 -127 190 -159 308 -257 462 -385 138 -114 218 -182 497 -420 30 -26
78 -64 105 -86 132 -105 545 -446 619 -511 57 -50 75 -44 97 36 10 36 46 162
80 280 34 118 94 337 135 485 40 149 82 302 94 340 73 246 108 366 139 485 13
47 29 105 36 130 8 25 43 153 80 285 37 132 75 272 86 310 11 39 29 104 41
145 11 41 28 102 38 135 17 57 37 128 79 280 11 39 28 102 39 140 11 39 30
108 42 155 13 47 39 139 58 205 19 66 40 143 48 170 22 85 43 158 59 210 8 28
35 124 60 215 73 262 80 284 106 297 19 10 530 13 2382 13 2123 0 2363 2 2410
16 104 31 332 130 417 180 32 19 62 34 67 35 8 0 97 53 275 161 100 61 98 58
169 213 45 99 66 148 104 241 33 79 66 152 170 369 29 61 83 180 120 265 37
85 73 166 81 180 7 14 25 52 40 85 15 33 39 87 54 120 25 54 39 85 100 220 10
22 31 69 45 105 15 36 32 71 37 77 37 45 191 43 -2924 45 l-2923 3 1 45 c1 25
13 88 28 140 15 52 31 112 36 133 6 21 24 84 41 140 17 56 37 125 45 152 7 28
25 91 39 140 14 50 32 115 39 145 7 30 20 78 28 105 9 28 26 86 38 130 12 44
29 100 36 125 8 25 28 96 45 159 29 105 101 303 119 326 4 6 11 20 15 33 9 32
130 244 176 310 236 341 696 663 1114 780 369 102 167 95 2879 99 1541 2 2383
7 2391 13 11 9 23 34 67 145 11 28 26 64 33 80 8 17 37 84 65 150 29 66 67
153 86 193 19 40 34 75 34 78 0 3 6 20 14 37 8 18 26 61 41 97 15 36 35 83 45
105 10 22 48 110 85 195 37 85 73 169 81 187 8 17 14 34 14 38 0 3 12 32 26
63 39 87 49 108 99 227 60 140 84 196 95 216 4 8 20 47 35 85 44 111 64 156
86 197 16 30 18 41 9 52 -13 16 -5357 20 -5715 5z M13271 14976 c-19 -8 -47
-65 -278 -571 -100 -218 -248 -549 -330 -740 -26 -60 -74 -163 -160 -345 -81
-171 -162 -357 -177 -407 -4 -11 -13 -27 -21 -33 -18 -15 -20 -60 -2 -60 6 0
1118 0 2470 0 2528 0 2567 -1 2761 -41 956 -198 1397 -1174 932 -2064 -234
-449 -665 -757 -1179 -842 -93 -16 -280 -18 -2034 -23 -1062 -3 -1934 -7
-1936 -10 -9 -9 -235 -525 -300 -685 -35 -88 -108 -259 -162 -380 -100 -226
-224 -521 -345 -820 -38 -93 -83 -201 -100 -240 -35 -77 -42 -95 -101 -265
-42 -119 -114 -452 -104 -477 4 -13 51 -14 328 -10 526 7 595 41 1005 500 29
33 65 62 81 67 17 5 807 9 1756 10 1888 1 1857 0 2153 60 234 47 486 113 574
150 13 5 55 21 93 36 273 103 525 220 655 305 30 20 89 56 130 79 433 249
1078 883 1291 1270 11 19 33 57 50 84 68 111 186 344 289 571 36 80 89 221
117 315 78 256 136 510 148 645 4 39 13 113 22 165 21 129 20 629 -1 757 -8
48 -17 115 -21 148 -10 95 -96 425 -146 560 -289 789 -777 1379 -1492 1806
-445 265 -1012 432 -1647 484 -217 18 -4279 19 -4319 1z" fill="#001C43" fill-rule="evenodd"/>
<path d="M12243 9547 c-15 -13 -79 -59 -141 -102 -63 -44 -196 -141 -297 -215
-101 -74 -206 -148 -234 -165 -29 -16 -77 -46 -109 -66 -31 -20 -131 -80 -222
-134 -91 -53 -177 -106 -192 -116 -15 -11 -30 -19 -34 -19 -4 0 -39 -20 -78
-44 -79 -49 -221 -132 -306 -179 -30 -16 -63 -37 -72 -45 -35 -30 -238 -394
-238 -426 0 -5 -23 -55 -51 -112 -53 -107 -56 -130 -14 -104 172 109 523 378
760 583 335 290 -58 -175 -453 -536 l-144 -131 -205 -311 c-113 -170 -216
-326 -228 -345 -28 -44 -218 -331 -244 -368 -10 -15 -139 -209 -286 -432 -147
-223 -281 -425 -298 -450 -52 -76 -299 -447 -392 -590 -49 -74 -179 -272 -290
-440 -111 -168 -212 -323 -225 -345 -13 -22 -38 -57 -54 -78 -59 -75 -84 -72
555 -73 1022 -2 935 3 904 -57 -7 -14 -16 -41 -20 -59 -4 -18 -13 -46 -20 -63
-7 -16 -22 -55 -33 -85 -38 -104 -73 -195 -82 -215 -14 -32 -76 -194 -99 -260
-46 -135 -110 -315 -135 -380 -15 -39 -36 -94 -46 -123 -11 -29 -28 -77 -39
-107 -47 -130 -60 -164 -91 -245 -57 -147 -80 -210 -140 -380 -31 -91 -71
-201 -88 -245 -17 -44 -50 -134 -72 -200 -23 -66 -51 -145 -62 -175 -11 -30
-26 -71 -33 -90 -7 -19 -33 -89 -59 -155 -112 -293 -136 -356 -171 -455 -21
-58 -53 -143 -71 -188 -19 -46 -34 -88 -34 -94 0 -5 -14 -44 -30 -85 -60 -150
0 -114 161 97 18 25 82 102 141 171 59 69 145 173 190 232 46 58 144 179 218
268 74 88 208 252 298 363 221 273 290 357 426 521 64 77 215 262 336 410 120
149 267 326 324 395 136 162 343 412 381 461 41 51 247 303 254 309 13 11 181
210 237 280 154 191 381 477 394 496 8 12 60 75 115 141 271 324 335 401 395
477 115 147 223 280 272 334 79 89 137 82 -722 82 -489 0 -761 4 -765 10 -8
12 38 153 217 675 109 317 116 336 162 475 41 121 58 170 108 305 22 61 57
162 78 225 47 141 179 519 215 615 14 39 41 114 59 167 19 53 37 102 41 108 4
7 13 33 20 58 14 49 116 351 139 412 21 55 106 280 126 335 10 28 44 131 75
230 30 99 62 195 70 213 29 65 4 84 -52 39z" fill="#D5A53F" fill-rule="evenodd"/>
</g>
</svg>
